<?xml version="1.0" encoding="UTF-8"?>
<svg version="1.1" xmlns="http://www.w3.org/2000/svg" width="51" height="51">
<path d="M0 0 C5 6.36363636 5 6.36363636 5 11 C5.66 11 6.32 11 7 11 C7 11.66 7 12.32 7 13 C7.99 13 8.98 13 10 13 C11.33333333 14.33333333 12.66666667 15.66666667 14 17 C18.77321014 18.97512144 24.16469284 18.54007355 28.875 16.625 C32.06811311 15.35313012 32.06811311 15.35313012 33 13 C33.99 13 34.98 13 36 13 C36 12.34 36 11.68 36 11 C36.66 11 37.32 11 38 11 C38.103125 10.484375 38.20625 9.96875 38.3125 9.4375 C39.24263866 6.13973565 40.61395512 3.13366668 42 0 C42.66 0.33 43.32 0.66 44 1 C43.36543647 12.07203945 43.36543647 12.07203945 40 17 C37.375 18.75 37.375 18.75 35 20 C34.67 20.66 34.34 21.32 34 22 C26.43206086 25.83464774 20.1607501 24.88671723 12.1875 23.1875 C8.79196994 21.92249861 7.31656878 20.73024178 5 18 C4.25556641 17.32904297 4.25556641 17.32904297 3.49609375 16.64453125 C0.23146516 13.05599695 -0.85582271 7.73012748 -1.25 3 C-1 1 -1 1 0 0 Z " fill="#8B627F" transform="translate(4,24)"/>
<path d="M0 0 C3.68069887 1.53643852 5.98775204 3.78150945 8.75 6.625 C9.54921875 7.44226563 10.3484375 8.25953125 11.171875 9.1015625 C12.07679687 10.04128906 12.07679687 10.04128906 13 11 C12.67 11.99 12.34 12.98 12 14 C9.36 11.36 6.72 8.72 4 6 C3.19757777 13.19736499 3.19757777 13.19736499 5.11328125 19.91015625 C6.60248651 21.41910696 6.60248651 21.41910696 9 23 C8.67 22.401875 8.34 21.80375 8 21.1875 C7 19 7 19 7 16 C11.22797927 18.73056995 11.22797927 18.73056995 13 21 C13.52268615 24.06437568 13.36208453 26.92228147 13 30 C11.95541681 29.12848385 10.91453593 28.25253033 9.875 27.375 C9.29492188 26.88773438 8.71484375 26.40046875 8.1171875 25.8984375 C7.41851562 25.27195312 6.71984375 24.64546875 6 24 C5.48260254 23.5973291 4.96520508 23.1946582 4.43212891 22.77978516 C1.94387562 20.66245162 0.24078924 19.08832816 -0.47998047 15.83056641 C-0.58929544 13.40196046 -0.5259025 11.05104786 -0.375 8.625 C-0.34792969 7.79355469 -0.32085937 6.96210938 -0.29296875 6.10546875 C-0.22275194 4.06918112 -0.11514575 2.03424167 0 0 Z " fill="#9E6E8F" transform="translate(12,12)"/>
<path d="M0 0 C0.66 0.33 1.32 0.66 2 1 C1.32256956 12.81999313 1.32256956 12.81999313 -2 17 C-4.76576748 17.8144256 -7.07729555 17.90417362 -10 18 C-9.67 18.99 -9.34 19.98 -9 21 C-9.90492187 21.19916016 -9.90492187 21.19916016 -10.828125 21.40234375 C-11.62734375 21.57894531 -12.4265625 21.75554688 -13.25 21.9375 C-14.03890625 22.11152344 -14.8278125 22.28554688 -15.640625 22.46484375 C-17.97764188 22.95624621 -17.97764188 22.95624621 -20.109375 23.69140625 C-22 24 -22 24 -25 22 C-23 20 -23 20 -20.375 19.875 C-19.59125 19.91625 -18.8075 19.9575 -18 20 C-17.67 19.34 -17.34 18.68 -17 18 C-14.66666667 17 -12.33333333 16 -10 15 C-9.67 14.34 -9.34 13.68 -9 13 C-8.01 13 -7.02 13 -6 13 C-6 12.34 -6 11.68 -6 11 C-5.34 11 -4.68 11 -4 11 C-3.896875 10.484375 -3.79375 9.96875 -3.6875 9.4375 C-2.75736134 6.13973565 -1.38604488 3.13366668 0 0 Z " fill="#8E6481" transform="translate(46,24)"/>
<path d="M0 0 C0.66 0 1.32 0 2 0 C2.08069658 2.95887459 2.14034665 5.9155659 2.1875 8.875 C2.22520508 10.13763672 2.22520508 10.13763672 2.26367188 11.42578125 C2.27817383 12.63427734 2.27817383 12.63427734 2.29296875 13.8671875 C2.31653442 14.98262939 2.31653442 14.98262939 2.34057617 16.12060547 C2.22818604 16.74080566 2.1157959 17.36100586 2 18 C1.01 18.66 0.02 19.32 -1 20 C-1.33 18.35 -1.66 16.7 -2 15 C-5.6304361 17.90596811 -5.6304361 17.90596811 -7.44921875 22.04296875 C-7.50722656 22.75066406 -7.56523437 23.45835938 -7.625 24.1875 C-7.74875 25.445625 -7.8725 26.70375 -8 28 C-8.99 28.66 -9.98 29.32 -11 30 C-11 23.73 -11 17.46 -11 11 C-10.01 11 -9.02 11 -8 11 C-7.67 12.65 -7.34 14.3 -7 16 C-3.95404797 13.65695998 -2.27027265 12.31275288 -1.48046875 8.4765625 C-1.32947986 6.69028715 -1.21481297 4.90048455 -1.140625 3.109375 C-1 1 -1 1 0 0 Z " fill="#916784" transform="translate(37,12)"/>
<path d="M0 0 C0.66 0 1.32 0 2 0 C1.34 1.32 0.68 2.64 0 4 C2.97 4 5.94 4 9 4 C8.34 2.68 7.68 1.36 7 0 C10.21043882 1.38188453 12.04936365 2.92421903 14.25 5.625 C14.77078125 6.25664062 15.2915625 6.88828125 15.828125 7.5390625 C16.40820312 8.26222656 16.40820312 8.26222656 17 9 C15.68 8.67 14.36 8.34 13 8 C12.71125 8.969375 12.4225 9.93875 12.125 10.9375 C11 14 11 14 9 15 C9 12.69 9 10.38 9 8 C6.03 8 3.06 8 0 8 C0 10.31 0 12.62 0 15 C-3 13 -3 13 -3.6875 10.375 C-3.790625 9.59125 -3.89375 8.8075 -4 8 C-5.32 8.33 -6.64 8.66 -8 9 C-7.04270084 7.87411986 -6.08412105 6.7493285 -5.125 5.625 C-4.59132813 4.99851562 -4.05765625 4.37203125 -3.5078125 3.7265625 C-2.38567993 2.44163349 -1.20628025 1.20628025 0 0 Z " fill="#926785" transform="translate(21,2)"/>
<path d="M0 0 C1.98 0 3.96 0 6 0 C3.18957668 4.52111578 0.38386133 6.12765853 -4.56640625 7.56640625 C-8.54592717 8.27543807 -12.07261563 7.82118037 -16 7 C-16.68835938 6.86207031 -17.37671875 6.72414063 -18.0859375 6.58203125 C-20 6.125 -20 6.125 -23 5 C-23.33 4.01 -23.66 3.02 -24 2 C-23.01 2.33 -22.02 2.66 -21 3 C-19.66893378 3.34227417 -18.33599921 3.67751743 -17 4 C-17.33 3.67 -17.66 3.34 -18 3 C-18 2.34 -18 1.68 -18 1 C-14.37 1.33 -10.74 1.66 -7 2 C-7.33 2.66 -7.66 3.32 -8 4 C-9.2065625 3.9690625 -9.2065625 3.9690625 -10.4375 3.9375 C-12.93354885 3.70366379 -12.93354885 3.70366379 -14 5 C-8.87160006 6.81975482 -4.82315618 4.8599099 0 3 C0 2.01 0 1.02 0 0 Z " fill="#855E79" transform="translate(36,41)"/>
<path d="M0 0 C3.84281736 1.92140868 5.80431927 3.5926816 8.75 6.625 C9.54921875 7.44226563 10.3484375 8.25953125 11.171875 9.1015625 C12.07679687 10.04128906 12.07679687 10.04128906 13 11 C12.67 11.99 12.34 12.98 12 14 C9.36 11.36 6.72 8.72 4 6 C3.67 9.96 3.34 13.92 3 18 C2.01 18 1.02 18 0 18 C0 12.06 0 6.12 0 0 Z " fill="#8A637E" transform="translate(12,12)"/>
<path d="M0 0 C4.11078125 0.65398793 5.32093226 3.2206265 7.75 6.4375 C8.41 6.7675 9.07 7.0975 9.75 7.4375 C8.01171875 8.5390625 8.01171875 8.5390625 5.75 9.4375 C3.64453125 8.8984375 3.64453125 8.8984375 1.5625 7.8125 C0.86769531 7.46960937 0.17289063 7.12671875 -0.54296875 6.7734375 C-2.25 5.4375 -2.25 5.4375 -3.05078125 3.3515625 C-3.14939453 2.40410156 -3.14939453 2.40410156 -3.25 1.4375 C-2.25 0.4375 -2.25 0.4375 0 0 Z " fill="#946686" transform="translate(11.25,36.5625)"/>
<path d="M0 0 C2.875 -0.1875 2.875 -0.1875 6 0 C6.66 0.99 7.32 1.98 8 3 C7.39671875 3.13277344 6.7934375 3.26554687 6.171875 3.40234375 C5.37265625 3.57894531 4.5734375 3.75554688 3.75 3.9375 C2.56664062 4.19853516 2.56664062 4.19853516 1.359375 4.46484375 C-0.97764188 4.95624621 -0.97764188 4.95624621 -3.109375 5.69140625 C-5 6 -5 6 -8 4 C-6 2 -6 2 -3.375 1.875 C-2.59125 1.91625 -1.8075 1.9575 -1 2 C-0.67 1.34 -0.34 0.68 0 0 Z " fill="#966888" transform="translate(29,42)"/>
<path d="M0 0 C4.22797927 2.73056995 4.22797927 2.73056995 6 5 C6.52268615 8.06437568 6.36208453 10.92228147 6 14 C3.54611134 11.54611134 2.3181263 9.31227098 1.5 5.9375 C1.03483232 3.69562323 1.03483232 3.69562323 -1 1 C-0.67 0.67 -0.34 0.34 0 0 Z " fill="#8E6582" transform="translate(19,28)"/>
<path d="M0 0 C3.21043882 1.38188453 5.04936365 2.92421903 7.25 5.625 C8.03117187 6.57246094 8.03117187 6.57246094 8.828125 7.5390625 C9.40820312 8.26222656 9.40820312 8.26222656 10 9 C8.68 8.67 7.36 8.34 6 8 C5.67 9.65 5.34 11.3 5 13 C4.67 13 4.34 13 4 13 C3.896875 11.741875 3.79375 10.48375 3.6875 9.1875 C3.30390844 5.86042583 3.30390844 5.86042583 1.4375 3.125 C0.963125 2.75375 0.48875 2.3825 0 2 C0 1.34 0 0.68 0 0 Z " fill="#8C6480" transform="translate(28,2)"/>
<path d="M0 0 C0.78375 0.04125 1.5675 0.0825 2.375 0.125 C2.375 1.115 2.375 2.105 2.375 3.125 C0.5625 3.75 0.5625 3.75 -1.625 4.125 C-2.615 3.465 -3.605 2.805 -4.625 2.125 C-2.625 0.125 -2.625 0.125 0 0 Z " fill="#AA749A" transform="translate(25.625,43.875)"/>
</svg>
